<svg width="25" height="25" fill="none" xmlns="http://www.w3.org/2000/svg"><g clip-path="url(#clip0)" fill="#B29FEA"><path d="M24.78 4.967L17.198 12.5l7.582 7.533a2.17 2.17 0 00.22-.941V5.908a2.17 2.17 0 00-.22-.941zM22.803 3.71H2.197a2.17 2.17 0 00-.941.221l9.69 9.642a2.2 2.2 0 003.107 0l9.691-9.642a2.172 2.172 0 00-.941-.22zM.22 4.967a2.17 2.17 0 00-.22.941v13.184c0 .338.083.655.22.941L7.802 12.5.22 4.967z"/><path d="M16.162 13.536l-1.073 1.072a3.666 3.666 0 01-5.178 0l-1.073-1.072-7.582 7.533c.286.137.603.22.941.22h20.606c.338 0 .655-.083.941-.22l-7.582-7.533z"/></g><defs><clipPath id="clip0"><path fill="#fff" d="M0 0h25v25H0z"/></clipPath></defs></svg>