<svg width="67" height="56" fill="none" xmlns="http://www.w3.org/2000/svg"><path d="M63.074 15.834v-3.926H39.027a5.88 5.88 0 00-3.564-3.564V0h-3.926v8.344a5.88 5.88 0 00-3.564 3.564H3.926v3.926h4.908L0 37.426c0 5.411 4.403 9.814 9.814 9.814h3.926c5.412 0 9.815-4.403 9.815-9.814L14.68 15.834h13.292a5.881 5.881 0 003.564 3.564v28.057c-3.836.785-6.87 3.8-7.653 7.637h19.232c-.782-3.838-3.817-6.852-7.653-7.637V19.398a5.88 5.88 0 003.564-3.564H52.28l-8.834 21.592c0 5.411 4.403 9.814 9.815 9.814h3.925c5.412 0 9.815-4.403 9.815-9.814l-8.873-21.592h4.947zM18.647 35.463H4.907l6.87-16.49 6.87 16.49zm43.445 0H48.353l6.87-16.49 6.87 16.49z" fill="#B29FEA"/></svg>