<svg width="68" height="68" fill="none" xmlns="http://www.w3.org/2000/svg"><g clip-path="url(#clip0)" fill="#B29FEA"><path d="M65.167 26.142a33.959 33.959 0 00-1.187-9.623 18.781 18.781 0 00-6.775-9.746C50.807 1.76 44.828-.317 37.837.037a76.16 76.16 0 00-10.962 1.568C21.762 2.632 18.048 4.43 15.52 7.1a21.512 21.512 0 00-4.547 7.406 29.96 29.96 0 00-1.03 3.709l-.09.392c-.239.883-.56 1.74-.962 2.562-.233.524-.468 1.047-.67 1.587a3.825 3.825 0 00-.306 1.905 4.328 4.328 0 001.654 2.524c.556.51.921.867.924 1.193-.044.17-.11.332-.198.483a43.797 43.797 0 01-4.962 8.07c-.813.995-1.666 2.154-1.492 3.332a3.522 3.522 0 001.642 2.114c.375.259.77.486 1.182.68.489.25 1.308.667 1.36.967.074.382.03.777-.123 1.133-.17.354-.34.66-.493.926-.416.736-1.113 1.969-.065 2.85.245.216.664.546 1.047.84a2.86 2.86 0 00-.365 1.64c.062.443.303.842.668 1.102.254.18.525.34.793.49.666.38.926.557 1.02.906.061.462.02.931-.122 1.375-.066.298-.13.595-.17.892a6.59 6.59 0 00.38 3.045 4.193 4.193 0 004.938 2.997 92.441 92.441 0 009.561-2.86c2.548 1.505 4.158 6.058 4.578 7.766.124.507.578.863 1.1.864l28.447-.079a1.133 1.133 0 001.08-1.465 8.741 8.741 0 00-1.155-2.168c-.268-.385-.51-.786-.725-1.203a22.105 22.105 0 01-1.28-3.24 37.732 37.732 0 01-1.336-6.703 19.14 19.14 0 011.482-9.949 25.449 25.449 0 013.077-4.857c.68-.922 1.391-1.874 2.028-2.879a17.425 17.425 0 002.777-9.305zm-6.624 10.843a27.548 27.548 0 00-3.334 5.302 21.408 21.408 0 00-1.655 11.127c.254 2.404.727 4.78 1.413 7.099a24.707 24.707 0 001.405 3.56c.258.508.55.997.874 1.464l.081.123-25.698.073a18.09 18.09 0 00-3.995-7.24c.289-.1.567-.195.817-.285.86-.3 1.509-.528 1.833-.63 4.858-1.526 7.288-3.734 7.223-6.564a1.177 1.177 0 00-1.161-1.107 1.133 1.133 0 00-1.106 1.16c.027 1.168-.928 2.87-5.637 4.348-.34.107-1.01.34-1.902.654-.808.283-1.8.63-2.884 1a94.294 94.294 0 01-9.744 2.94 2.01 2.01 0 01-2.339-1.52 4.399 4.399 0 01-.273-2c.03-.234.084-.469.136-.704a5.03 5.03 0 00.107-2.422 3.74 3.74 0 00-2.09-2.32l-.243-.139c.121-.247.267-.482.434-.701a1.133 1.133 0 00-.217-1.61c-.272-.201-.92-.686-1.385-1.059.057-.105.122-.227.182-.328.175-.307.373-.661.567-1.066a4.194 4.194 0 00.305-2.534c-.264-1.39-1.587-2.069-2.563-2.563a6.54 6.54 0 01-.943-.547 5.894 5.894 0 01-.666-.54c0-.17.181-.584 1.053-1.649a45.75 45.75 0 005.178-8.418 3.27 3.27 0 00.444-1.535 3.947 3.947 0 00-1.66-2.834c-.454-.42-.89-.816-.94-1.165.005-.274.067-.544.182-.793.185-.492.402-.975.618-1.458.462-.953.831-1.95 1.1-2.974l.093-.395a27.75 27.75 0 01.947-3.433 19.253 19.253 0 014.066-6.644C19.36 6.346 22.684 4.76 27.32 3.827a73.691 73.691 0 0110.632-1.525c6.412-.34 11.917 1.602 17.851 6.258a16.346 16.346 0 015.992 8.58 31.657 31.657 0 011.104 8.97 15.218 15.218 0 01-2.424 8.136c-.594.931-1.276 1.85-1.936 2.739h.003z"/><path d="M26.633 19.267h1.134a1.133 1.133 0 000-2.267h-1.134a3.4 3.4 0 00-3.4 3.4v1.133a3.4 3.4 0 003.4 3.4h1.134a1.133 1.133 0 000-2.266h-1.134a1.133 1.133 0 01-1.133-1.134V20.4c0-.626.507-1.133 1.133-1.133zm7.934-3.4c-.626 0-1.134.507-1.134 1.133v2.267c0 .626-.507 1.133-1.133 1.133h-1.133a1.133 1.133 0 100 2.267H32.3a3.4 3.4 0 003.4-3.4V17c0-.626-.507-1.133-1.133-1.133z"/><path d="M39.1 15.866v-1.133a3.4 3.4 0 00-3.4-3.4h-2.267a3.4 3.4 0 00-3.4 3.4v1.133a1.133 1.133 0 102.267 0v-1.133c0-.626.507-1.133 1.133-1.133H35.7c.626 0 1.133.507 1.133 1.133v1.133a1.133 1.133 0 102.267 0zm3.4 7.934h-1.133a1.133 1.133 0 01-1.134-1.133v-1.134a1.133 1.133 0 00-2.266 0v1.134a3.4 3.4 0 003.4 3.4H42.5a1.133 1.133 0 000-2.267zm5.667-3.4c0-.626-.508-1.133-1.134-1.133H45.9a1.133 1.133 0 110-2.267h1.133a1.133 1.133 0 000-2.267H45.9a3.4 3.4 0 100 6.8h1.133c.626 0 1.134-.507 1.134-1.133zm3.4 0c-.626 0-1.134.507-1.134 1.133V23.8c0 .626-.507 1.133-1.133 1.133h-1.133a1.133 1.133 0 100 2.267H49.3a3.4 3.4 0 003.4-3.4v-2.267c0-.626-.507-1.133-1.133-1.133z"/><path d="M60.588 23.8c0-.018-.01-.033-.01-.051a27.878 27.878 0 00-.961-5.989 14.147 14.147 0 00-5.206-7.412c-5.126-4.02-9.773-5.815-15.074-5.815-.417 0-.839.012-1.27.032-.387.02-.773.065-1.16.096-.026 0-.048-.014-.074-.014a.935.935 0 00-.175.035 79.65 79.65 0 00-8.891 1.368 26.48 26.48 0 00-3.79 1.043c-.026.01-.052.016-.077.028a13.107 13.107 0 00-5.087 3.097 16.83 16.83 0 00-3.266 5.113 1.128 1.128 0 00-.085.2c-.076.186-.163.362-.233.55-.348.945-.896 3.296-.965 3.591-.255 1.268-.887 5.615 1.684 8.342 1.632 1.73 4.128 2.368 7.405 1.904l1.526-.218c7.271-1.046 10.92-1.57 14.061 1.5a71.046 71.046 0 001.867 1.78c-.713 2.242-1.638 7.027 2.153 9.86 4.073 3.06 4.073 3.888 4.073 5.893a1.134 1.134 0 001.64 1.02c.297-.154 2.894-1.6 2.894-6.687 0-2.782 2.074-5.187 4.122-7.177l.034-.03a10.96 10.96 0 002.833-2.834 13.102 13.102 0 001.737-4.226c.067-.146.102-.305.102-.466a13.5 13.5 0 00.238-2.254 32.405 32.405 0 00-.045-2.28zM49.3 43.066a8.665 8.665 0 01-.399 2.782c-.53-1.325-1.756-2.698-4.588-4.823-2.252-1.686-2.093-4.49-1.607-6.46a12.157 12.157 0 007.48 2.676 12.97 12.97 0 001.322-.077 9.86 9.86 0 00-2.208 5.902zm7.344-11.249a7.366 7.366 0 01-3.229 2.684 9.955 9.955 0 01-6.382-.095v-1.54c0-.625.508-1.133 1.134-1.133h3.4a1.133 1.133 0 000-2.267h-3.4a3.4 3.4 0 00-3.4 3.4v.353a30.773 30.773 0 01-4.245-3.638 9.65 9.65 0 00-4.822-2.653v-.861a1.133 1.133 0 00-2.267 0v.584a50.472 50.472 0 00-8.88.806l-1.52.217c-.684.1-1.376.136-2.066.106v-.58a1.133 1.133 0 10-2.267 0v.054a3.8 3.8 0 01-1.107-.793 5.093 5.093 0 01-1.196-2.661h1.17a3.4 3.4 0 003.4-3.4 1.133 1.133 0 10-2.267 0c0 .626-.507 1.133-1.133 1.133h-1.27c.03-.464.09-.925.18-1.381.148-.644.566-2.38.83-3.152h3.66a1.133 1.133 0 100-2.267H18.34a14.09 14.09 0 012.116-2.957 9.43 9.43 0 012.777-1.924v1.481a3.4 3.4 0 003.4 3.4 1.133 1.133 0 100-2.267 1.133 1.133 0 01-1.133-1.133V8.965c.894-.28 1.802-.51 2.72-.692a137.96 137.96 0 012.947-.56v.22a1.133 1.133 0 102.266 0v-.597a56.484 56.484 0 012.267-.3v.897a1.133 1.133 0 102.267 0V6.847c.071 0 .144-.013.214-.018.7-.03 1.381-.03 2.052 0v4.504c0 .626.508 1.133 1.134 1.133h2.266a1.133 1.133 0 100-2.266H42.5V7.075c1.983.336 3.9.984 5.681 1.918 0 .026-.014.047-.014.074v3.4a1.133 1.133 0 102.266 0v-2.165a34.177 34.177 0 012.267 1.6v2.831c0 .626-.507 1.133-1.133 1.133a1.133 1.133 0 100 2.267 3.4 3.4 0 003.4-3.4v-.776a11.13 11.13 0 012.47 4.42c.384 1.404.643 2.84.774 4.29H56.1a1.133 1.133 0 000 2.266h2.243c.008.37.026.74.02 1.113-.005.395-.048.774-.091 1.154H56.1a1.133 1.133 0 000 2.267h1.66a11.088 11.088 0 01-1.116 2.35z"/></g><defs><clipPath id="clip0"><path fill="#fff" d="M0 0h68v68H0z"/></clipPath></defs></svg>