<svg width="38" height="68" fill="none" xmlns="http://www.w3.org/2000/svg"><path d="M21.936 29.751v-15.11a19.462 19.462 0 018.683 3.864c.507.356 1.103.55 1.72.558 1.975 0 3.585-1.627 3.606-3.649a3.317 3.317 0 00-.923-2.317C31.344 9.873 26.73 7.97 21.895 7.688V2.623c0-1.447-1.145-2.618-2.559-2.618C19.306 0 19.277 0 19.248 0c-1.435-.02-2.618 1.15-2.638 2.623v4.893C7.173 8.203.755 14.17.755 22.11c0 9.744 8.095 12.449 15.855 14.595v17.17a21.533 21.533 0 01-11.115-5.023 3.444 3.444 0 00-2.097-.772C1.464 48.217-.025 49.874 0 51.857c-.004.867.327 1.7.923 2.318 4.333 3.992 9.903 6.289 15.728 6.482v4.721c0 .03.005.06.005.09.067 1.468 1.287 2.602 2.722 2.529 1.413 0 2.558-1.172 2.558-2.619v-4.807C33.386 59.798 38 52.673 38 45.118c0-10.13-8.304-13.22-16.064-15.367zm-5.284-1.373c-4.572-1.374-8.137-2.79-8.137-6.782s3.23-6.868 8.137-7.255v14.037zm5.284 25.582V38.336c4.74 1.373 8.43 3.22 8.389 7.726 0 3.263-2.181 7.126-8.389 7.898z" fill="#B29FEA"/></svg>