<svg width="22" height="22" fill="none" xmlns="http://www.w3.org/2000/svg"><g clip-path="url(#clip0)"><path d="M20.677 6.974c.438-2.164-1.097-4.198-3.24-4.428-1.119-2.643-4.732-3.087-6.436-.708C9.297-.54 5.684-.098 4.564 2.546a3.717 3.717 0 00-3.24 4.428 3.712 3.712 0 00-.419 5.268c-2.224 2.995-.11 7.36 3.726 7.36 1.225 2.555 4.722 2.858 6.37.559 1.648 2.3 5.145 1.993 6.37-.56 3.826.009 5.95-4.364 3.725-7.359a3.712 3.712 0 00-.419-5.268zM7.894 20.307c-1.938 0-3.057-2.277-1.794-3.805a.693.693 0 10-1.069-.883 3.716 3.716 0 00-.844 2.555c-2.63-.28-3.801-3.424-2.063-5.362.02.021.671-.91 2.062-1.06-.023.45.036.904.18 1.345a.694.694 0 001.318-.431 2.328 2.328 0 011.488-2.933.694.694 0 10-.431-1.318 3.764 3.764 0 00-.46.185 1.813 1.813 0 01.53-2.054.694.694 0 00-.885-1.068 3.197 3.197 0 00-.78 3.97c-.468.516-.577.9-.616.9a4.59 4.59 0 00-2.724.891A2.324 2.324 0 012.4 7.82a.694.694 0 00.286-.822c-.51-1.427.451-3.105 2.29-3.105.314 0 .59-.211.671-.516a2.326 2.326 0 014.573.597v14.01a2.328 2.328 0 01-2.325 2.324zm12.125-9.068c-.827-.607-1.83-.908-2.737-.89a3.675 3.675 0 00-.602-.902 3.197 3.197 0 00-.781-3.969.694.694 0 00-.885 1.068c.616.51.806 1.347.53 2.054a3.771 3.771 0 00-.46-.185.694.694 0 10-.431 1.318 2.328 2.328 0 011.488 2.933.694.694 0 001.318.43c.144-.44.203-.894.18-1.343a3.235 3.235 0 012.885 3.21 3.233 3.233 0 01-2.886 3.21 3.715 3.715 0 00-.844-2.555.693.693 0 10-1.07.884c1.261 1.525.146 3.805-1.793 3.805a2.328 2.328 0 01-2.325-2.325V3.973a2.327 2.327 0 014.573-.597c.083.312.37.527.693.515 1.625-.06 2.822 1.555 2.268 3.106-.11.307.01.649.286.821a2.324 2.324 0 01.593 3.421z" fill="#B29FEA"/></g><defs><clipPath id="clip0"><path fill="#fff" d="M0 0h22v22H0z"/></clipPath></defs></svg>