<svg width="20" height="20" fill="none" xmlns="http://www.w3.org/2000/svg"><g clip-path="url(#clip0)" fill="#B29FEA"><path d="M11.528 6.657a3.138 3.138 0 100-6.276 3.138 3.138 0 000 6.276zm8.136 1.914a1.147 1.147 0 00-1.565-.053l-1.793 1.561a2.324 2.324 0 01-.724 1.475 2.381 2.381 0 01-1.642.653H9.96V11.03h3.98c.641 0 1.183-.503 1.2-1.144a1.177 1.177 0 00-1.175-1.21h-5.89c-.623 0-1.222.249-1.663.69L0 15.778l3.9 3.9 5.197-5.197h5.305a2.35 2.35 0 001.664-.689l3.598-3.598a1.148 1.148 0 000-1.623z"/></g><defs><clipPath id="clip0"><rect width="20" height="20" rx="10" fill="#fff"/></clipPath></defs></svg>