<svg width="21" height="21" fill="none" xmlns="http://www.w3.org/2000/svg"><path d="M18.9 1.05a2.096 2.096 0 00-1.51 3.554l-3.836 7.672a2.024 2.024 0 00-.254-.026c-.271 0-.54.054-.79.157l-2.98-3.35c.174-.307.267-.654.269-1.007a2.1 2.1 0 10-4.2 0c.002.501.185.985.515 1.362l-3.64 6.376a2.11 2.11 0 00-.375-.038 2.1 2.1 0 102.1 2.1 2.081 2.081 0 00-.515-1.362l3.64-6.376c.39.077.795.036 1.163-.119l2.978 3.35a2.075 2.075 0 00-.266 1.007 2.1 2.1 0 103.61-1.454l3.836-7.672c.084.014.169.023.254.026a2.1 2.1 0 100-4.2zM2.1 18.55a.7.7 0 110-1.4.7.7 0 010 1.4zm5.6-9.8a.7.7 0 110-1.4.7.7 0 010 1.4zm5.6 6.3a.7.7 0 110-1.4.7.7 0 010 1.4zm5.6-11.2a.7.7 0 110-1.4.7.7 0 010 1.4z" fill="#B29FEA"/></svg>