<svg width="15" height="15" fill="none" xmlns="http://www.w3.org/2000/svg"><path d="M13.125 1.875h-1.406V.469A.469.469 0 0011.25 0H2.812c-.775 0-1.406.63-1.406 1.406v11.719c0 1.034.841 1.875 1.875 1.875h9.844c.259 0 .469-.21.469-.469V2.344a.469.469 0 00-.469-.469zm-2.344 9.844a.47.47 0 01-.469.469H4.689a.469.469 0 01-.47-.47v-.937a2.346 2.346 0 012.345-2.344h1.875a2.346 2.346 0 012.343 2.344v.938zM5.625 5.625c0-1.034.84-1.875 1.875-1.875 1.034 0 1.875.84 1.875 1.875 0 1.034-.84 1.875-1.875 1.875a1.877 1.877 0 01-1.875-1.875zm5.156-3.75H2.812a.469.469 0 010-.938h7.97v.938z" fill="#fff"/></svg>