<svg width="14" height="14" fill="none" xmlns="http://www.w3.org/2000/svg"><path d="M14 9.475a4.536 4.536 0 00-3.314-4.361A5.352 5.352 0 005.346 0 5.352 5.352 0 000 5.346c0 .96.256 1.896.741 2.717L.02 10.672l2.609-.722a5.327 5.327 0 002.485.736A4.536 4.536 0 009.474 14a4.51 4.51 0 002.303-.63l2.203.61-.61-2.203A4.51 4.51 0 0014 9.475zM2.758 9.063l-1.562.432.432-1.562-.098-.154a4.51 4.51 0 01-.71-2.433A4.53 4.53 0 015.346.82 4.53 4.53 0 019.87 5.346 4.53 4.53 0 015.346 9.87a4.51 4.51 0 01-2.434-.71l-.154-.098zm10.046 3.74l-1.16-.32-.154.1a3.69 3.69 0 01-2.015.597 3.714 3.714 0 01-3.513-2.524 5.356 5.356 0 004.694-4.694 3.715 3.715 0 012.524 3.513c0 .718-.206 1.415-.596 2.015l-.1.155.32 1.159z" fill="#fff"/><path d="M4.936 7.41h.82v.82h-.82v-.82zm1.23-3.308a.812.812 0 01-.267.605l-.963.882v1h.82V5.95l.697-.638a1.642 1.642 0 00-1.107-2.851c-.905 0-1.64.736-1.64 1.64h.82a.821.821 0 011.64 0z" fill="#fff"/></svg>